<svg xmlns="http://www.w3.org/2000/svg" width="509.253" height="768" viewBox="0 0 509.253 768">
  <g id="LeftBgFooter" transform="translate(-6190.5 -7713)">
    <path id="Path_8279" data-name="Path 8279" d="M0,0H504.753V768H0Z" transform="translate(6195 7713)" fill="#0f1010"/>
    <circle id="Ellipse_257" data-name="Ellipse 257" cx="12.5" cy="12.5" r="12.5" transform="translate(6369.858 7755.5)" fill="#9e9781" opacity="0.75"/>
    <circle id="Ellipse_293" data-name="Ellipse 293" cx="12.5" cy="12.5" r="12.5" transform="translate(6601.5 7793)" fill="#9e9781" opacity="0.75"/>
    <circle id="Ellipse_264" data-name="Ellipse 264" cx="12" cy="12" r="12" transform="translate(6235 8206)" fill="#9e9781" opacity="0.75"/>
    <circle id="Ellipse_307" data-name="Ellipse 307" cx="12" cy="12" r="12" transform="translate(6475.376 8434)" fill="#9e9781" opacity="0.75"/>
    <circle id="Ellipse_300" data-name="Ellipse 300" cx="12" cy="12" r="12" transform="translate(6349.858 8364)" fill="#9e9781" opacity="0.75"/>
    <circle id="Ellipse_271" data-name="Ellipse 271" cx="11.5" cy="11.5" r="11.5" transform="translate(6658.5 8057)" fill="#9e9781" opacity="0.75"/>
    <circle id="Ellipse_295" data-name="Ellipse 295" cx="7.5" cy="7.5" r="7.5" transform="translate(6479.876 7968)" fill="#9e9781" opacity="0.75"/>
    <circle id="Ellipse_308" data-name="Ellipse 308" cx="14.688" cy="14.688" r="14.688" transform="translate(6540.876 7738.625)" fill="#9e9781" opacity="0.75"/>
    <circle id="Ellipse_306" data-name="Ellipse 306" cx="18.75" cy="18.75" r="18.75" transform="translate(6507.126 8137.5)" fill="#9e9781" opacity="0.75"/>
    <circle id="Ellipse_274" data-name="Ellipse 274" cx="15" cy="15" r="15" transform="translate(6353 7922)" fill="#9e9781" opacity="0.75"/>
    <circle id="Ellipse_305" data-name="Ellipse 305" cx="15" cy="15" r="15" transform="translate(6510.876 8269)" fill="#9e9781" opacity="0.75"/>
    <circle id="Ellipse_260" data-name="Ellipse 260" cx="16" cy="16" r="16" transform="translate(6228 7990)" fill="#9e9781" opacity="0.75"/>
    <circle id="Ellipse_303" data-name="Ellipse 303" cx="16" cy="16" r="16" transform="translate(6376.149 8213.5)" fill="#9e9781" opacity="0.75"/>
    <circle id="Ellipse_302" data-name="Ellipse 302" cx="16" cy="16" r="16" transform="translate(6606 7937)" fill="#9e9781" opacity="0.75"/>
    <circle id="Ellipse_296" data-name="Ellipse 296" cx="16" cy="16" r="16" transform="translate(6199.5 8414)" fill="#9e9781" opacity="0.75"/>
    <circle id="Ellipse_292" data-name="Ellipse 292" cx="26.273" cy="26.273" r="26.273" transform="translate(6405.876 7805.5)" fill="#9e9781" opacity="0.75"/>
    <circle id="Ellipse_291" data-name="Ellipse 291" cx="21" cy="21" r="21" transform="translate(6352.858 8068.5)" fill="#9e9781" opacity="0.75"/>
    <circle id="Ellipse_299" data-name="Ellipse 299" cx="21" cy="21" r="21" transform="translate(6601.5 8388)" fill="#9e9781" opacity="0.75"/>
    <circle id="Ellipse_263" data-name="Ellipse 263" cx="12.5" cy="12.5" r="12.5" transform="translate(6216 7793)" fill="#9e9781" opacity="0.75"/>
    <circle id="Ellipse_304" data-name="Ellipse 304" cx="12.5" cy="12.5" r="12.5" transform="translate(6633.5 8220.5)" fill="#9e9781" opacity="0.75"/>
  </g>
</svg>
