<svg id="LogoBahr" xmlns="http://www.w3.org/2000/svg" width="135.333" height="134.833" viewBox="0 0 135.333 134.833">
  <g id="Group_2223" data-name="Group 2223">
    <ellipse id="Ellipse_153" data-name="Ellipse 153" cx="67.667" cy="67.417" rx="67.667" ry="67.417" fill="#0f5bf3"/>
    <g id="Group_1912" data-name="Group 1912" transform="translate(37.539 26.059)">
      <path id="Path_4080" data-name="Path 4080" d="M2040.234,1278.226l-48.362,22.229.772,12.168,31.327,9.223-29.751,14.533-2.348,17.689,59.21-26.6-3.369-14.842-31.821-8.331,26.529-11.246Z" transform="translate(-1991.872 -1278.226)" fill="#e7ecf5"/>
      <ellipse id="Ellipse_134" data-name="Ellipse 134" cx="7.209" cy="8.137" rx="7.209" ry="8.137" transform="translate(45.955 64.964)" fill="#e7ecf5"/>
      <path id="Path_4081" data-name="Path 4081" d="M2050.073,1345.923a13.562,13.562,0,0,1,1.075,5.547,6.834,6.834,0,0,1-1.939,4.949,8.494,8.494,0,0,1-5.735,2.044,10.483,10.483,0,0,1-3.5-.889,9.963,9.963,0,0,0,8.259-2.6A12.86,12.86,0,0,0,2050.073,1345.923Z" transform="translate(-1991.872 -1278.226)" fill="#0f5bf3"/>
    </g>
  </g>
</svg>
