<svg xmlns="http://www.w3.org/2000/svg" width="500" height="768" viewBox="0 0 500 768">
  <g id="RightBgFooter" transform="translate(-2523.42 -11136.169)">
    <g id="RightBgFooter-2" data-name="RightBgFooter" transform="translate(-3671.58 3423.169)">
      <path id="Path_8279" data-name="Path 8279" d="M0,0H500V768H0Z" transform="translate(6195 7713)" fill="#0f1010"/>
    </g>
    <g id="RightBgFooter-3" data-name="RightBgFooter" transform="translate(-806.901 -289.331)">
      <g id="Group_3744" data-name="Group 3744" transform="translate(3357 11455.5)">
        <circle id="Ellipse_277" data-name="Ellipse 277" cx="12" cy="12" r="12" transform="translate(379.927 85.5)" fill="#9e9781" opacity="0.75"/>
        <circle id="Ellipse_283" data-name="Ellipse 283" cx="11.5" cy="11.5" r="11.5" transform="translate(419.427 192.5)" fill="#9e9781" opacity="0.75"/>
        <circle id="Ellipse_298" data-name="Ellipse 298" cx="23.25" cy="23.25" r="23.25" transform="translate(372.927 348)" fill="#9e9781" opacity="0.75"/>
        <circle id="Ellipse_311" data-name="Ellipse 311" cx="23.25" cy="23.25" r="23.25" transform="translate(254.943)" fill="#9e9781" opacity="0.75"/>
        <circle id="Ellipse_315" data-name="Ellipse 315" cx="23.25" cy="23.25" r="23.25" transform="translate(321.281 554.25)" fill="#9e9781" opacity="0.75"/>
        <circle id="Ellipse_278" data-name="Ellipse 278" cx="7.5" cy="7.5" r="7.5" transform="translate(117.832 680.5)" fill="#9e9781" opacity="0.75"/>
        <circle id="Ellipse_282" data-name="Ellipse 282" cx="16.083" cy="16.083" r="16.083" transform="translate(291.984 255.417)" fill="#9e9781" opacity="0.75"/>
        <circle id="Ellipse_309" data-name="Ellipse 309" cx="16.083" cy="16.083" r="16.083" transform="translate(70.543 30.417)" fill="#9e9781" opacity="0.75"/>
        <circle id="Ellipse_289" data-name="Ellipse 289" cx="7.5" cy="7.5" r="7.5" transform="translate(430.927 490.5)" fill="#9e9781" opacity="0.75"/>
        <circle id="Ellipse_313" data-name="Ellipse 313" cx="7.5" cy="7.5" r="7.5" transform="translate(41 147.5)" fill="#9e9781" opacity="0.75"/>
        <circle id="Ellipse_286" data-name="Ellipse 286" cx="13.5" cy="13.5" r="13.5" transform="translate(273.986 394.5)" fill="#9e9781" opacity="0.75"/>
        <circle id="Ellipse_314" data-name="Ellipse 314" cx="13.5" cy="13.5" r="13.5" transform="translate(0 621.5)" fill="#9e9781" opacity="0.75"/>
        <circle id="Ellipse_310" data-name="Ellipse 310" cx="13.5" cy="13.5" r="13.5" transform="translate(27 381.5)" fill="#9e9781" opacity="0.75"/>
        <circle id="Ellipse_297" data-name="Ellipse 297" cx="13.5" cy="13.5" r="13.5" transform="translate(286.61 680.5)" fill="#9e9781" opacity="0.75"/>
        <circle id="Ellipse_284" data-name="Ellipse 284" cx="28" cy="28" r="28" transform="translate(129.167 510.5)" fill="#9e9781" opacity="0.75"/>
        <circle id="Ellipse_312" data-name="Ellipse 312" cx="28" cy="28" r="28" transform="translate(152.9 119.5)" fill="#9e9781" opacity="0.75"/>
        <circle id="Ellipse_285" data-name="Ellipse 285" cx="8.5" cy="8.5" r="8.5" transform="translate(145.911 305.5)" fill="#9e9781" opacity="0.75"/>
      </g>
    </g>
  </g>
</svg>
