<svg xmlns="http://www.w3.org/2000/svg" width="34.772" height="29.958" viewBox="0 0 34.772 29.958">
  <g id="userEdit" transform="translate(-14862.648 -347.279)">
    <path id="bxs-user-check" d="M13.6,18.749a6.255,6.255,0,0,0,5.321-2.883,6.124,6.124,0,0,0,.922-3.36A6.106,6.106,0,0,0,13.6,6.263a6.106,6.106,0,0,0-6.243,6.243A6.106,6.106,0,0,0,13.6,18.749Zm1.887,2.918H11.918A8.928,8.928,0,0,0,3,30.586v1.784l14.707.1,1.022-3.847,3.024-4.211S18.326,21.667,15.486,21.667Z" transform="translate(14860.648 342.016)" fill="none" stroke="#fceb81" stroke-width="2"/>
    <path id="pencil" d="M1.875,20.513l0,0a1.033,1.033,0,0,0,.732.305,1.047,1.047,0,0,0,.337-.056l5.905-2L20.184,7.431a3.694,3.694,0,1,0-5.224-5.223L3.628,13.539l-2,5.905a1.033,1.033,0,0,0,.25,1.069ZM15.9,3.149a2.363,2.363,0,1,1,3.342,3.342l-1.49,1.49L14.41,4.639ZM4.789,14.261l8.68-8.681,3.342,3.342L8.131,17.6,3.073,19.318Z" transform="matrix(0.998, -0.07, 0.07, 0.998, 14874.755, 356.575)" fill="#f5e376"/>
  </g>
</svg>
